HIERARCHY
ROOT Hips
{
	OFFSET 0.000000 88.474243 0.000000
	CHANNELS 6 Xposition Yposition Zposition Zrotation Yrotation Xrotation 
	JOINT Hips_Spine
	{
		OFFSET 0.000000 0.000000 0.000000
		CHANNELS 3 Zrotation Yrotation Xrotation
		JOINT Spine
		{
			OFFSET 0.005100 8.711998 -0.691000
			CHANNELS 3 Zrotation Yrotation Xrotation
			JOINT Spine1
			{
				OFFSET -0.009200 8.660301 -1.275000
				CHANNELS 3 Zrotation Yrotation Xrotation
				JOINT Spine2
				{
					OFFSET 0.006300 9.852501 -1.857000
					CHANNELS 3 Zrotation Yrotation Xrotation
					JOINT Spine2_Neck
					{
						OFFSET 0.000000 0.000000 0.000000
						CHANNELS 3 Zrotation Yrotation Xrotation
						JOINT Neck
						{
							OFFSET 0.016300 11.420799 -0.263300
							CHANNELS 3 Zrotation Yrotation Xrotation
							End Site #name: Head
							{
								OFFSET -0.019200 9.262405 2.362500
							}
						}
					}
					JOINT Spine2_LeftShoulder
					{
						OFFSET 0.000000 0.000000 0.000000
						CHANNELS 3 Zrotation Yrotation Xrotation
						JOINT LeftShoulder
						{
							OFFSET 5.616900 6.732201 -0.345700
							CHANNELS 3 Zrotation Yrotation Xrotation
							JOINT LeftArm
							{
								OFFSET 10.664888 -0.183372 -2.440700
								CHANNELS 3 Zrotation Yrotation Xrotation
								JOINT LeftForeArm
								{
									OFFSET 27.459126 0.000000 0.000000
									CHANNELS 3 Zrotation Yrotation Xrotation
									End Site #name: LeftHand
									{
										OFFSET 21.306858 0.000000 0.000000
									}
								}
							}
						}
					}
					JOINT Spine2_RightShoulder
					{
						OFFSET 0.000000 0.000000 0.000000
						CHANNELS 3 Zrotation Yrotation Xrotation
						JOINT RightShoulder
						{
							OFFSET -5.580300 6.737503 -0.344400
							CHANNELS 3 Zrotation Yrotation Xrotation
							JOINT RightArm
							{
								OFFSET -10.679335 -0.188484 -2.383900
								CHANNELS 3 Zrotation Yrotation Xrotation
								JOINT RightForeArm
								{
									OFFSET -27.503529 0.000000 0.000000
									CHANNELS 3 Zrotation Yrotation Xrotation
									End Site #name: RightHand
									{
										OFFSET -21.306808 0.000000 0.000000
									}
								}
							}
						}
					}
				}
			}
		}
	}
	JOINT Hips_LeftUpLeg
	{
		OFFSET 0.000000 0.000000 0.000000
		CHANNELS 3 Zrotation Yrotation Xrotation
		JOINT LeftUpLeg
		{
			OFFSET 6.857700 -6.739601 0.312100
			CHANNELS 3 Zrotation Yrotation Xrotation
			JOINT LeftLeg
			{
				OFFSET -0.367590 -34.731552 -4.572400
				CHANNELS 3 Zrotation Yrotation Xrotation
				End Site #name: LeftFoot
				{
					OFFSET 0.367590 -34.656704 -6.067400
				}
			}
		}
	}
	JOINT Hips_RightUpLeg
	{
		OFFSET 0.000000 0.000000 0.000000
		CHANNELS 3 Zrotation Yrotation Xrotation
		JOINT RightUpLeg
		{
			OFFSET -6.876100 -6.733299 0.301000
			CHANNELS 3 Zrotation Yrotation Xrotation
			JOINT RightLeg
			{
				OFFSET 0.347353 -34.795158 -4.515900
				CHANNELS 3 Zrotation Yrotation Xrotation
				End Site #name: RightFoot
				{
					OFFSET -0.347353 -34.589367 -6.070300
				}
			}
		}
	}
}
MOTION
Frames: 12
Frame Time: 0.041667
2.670983 0.482665 -4.879053 175.301692 -10.231766 -179.059608 0.000000 -0.000000 0.000000 -4.352483 -0.339007 4.872561 0.057819 -1.937254 0.325896 0.000000 0.000000 0.000000 0.501212 -1.759817 0.930400 2.075556 -32.114350 -2.038023 -0.160747 -1.708393 -0.886883 0.944084 -5.964691 0.732736 -84.306751 -21.298297 10.889938 2.509012 -20.024384 -0.757885 -0.176061 -2.439892 -0.267357 17.865734 18.452745 4.195309 55.130241 12.631569 6.819927 -3.455040 76.296612 0.150840 0.000000 0.000000 -0.000000 -1.634025 15.296232 -6.252276 0.475424 -34.797234 -14.383158 0.000000 0.000000 -0.000000 -6.438370 -51.880566 -8.857124 -14.176624 -9.352120 20.302418 
2.729928 0.519524 -5.003643 175.381662 -9.818128 -179.082619 0.000000 -0.000000 0.000000 -4.619443 -0.394318 5.049619 0.023055 -1.887186 0.292244 0.000000 0.000000 0.000000 0.462477 -1.737758 0.881819 1.827283 -31.192898 -2.189965 -0.187372 -1.670320 -0.891166 0.952708 -6.328202 0.864120 -84.093785 -21.479063 11.190570 2.490087 -20.905891 -0.840453 -0.200455 -2.396694 -0.319207 17.489407 18.460053 4.094165 55.073497 12.633854 7.164772 -3.580953 75.512525 0.070747 0.000000 0.000000 -0.000000 -1.636737 15.128192 -6.522752 0.339999 -34.697414 -13.909362 0.000000 0.000000 -0.000000 -6.339992 -51.497802 -8.754351 -13.794123 -8.735846 20.074231 
2.792136 0.557231 -5.121716 175.437645 -9.512660 -179.092317 0.000000 -0.000000 0.000000 -4.883590 -0.413265 5.221992 -0.019186 -1.836934 0.265113 0.000000 0.000000 0.000000 0.422616 -1.710249 0.843451 1.561390 -30.132353 -2.448317 -0.212148 -1.627107 -0.890502 1.007308 -6.554354 0.896539 -83.887434 -21.611323 11.393353 2.501232 -22.004321 -0.928668 -0.223018 -2.349136 -0.365421 17.093332 18.459447 3.986518 55.030656 12.648412 7.487097 -3.683295 74.817371 0.010035 0.000000 0.000000 -0.000000 -1.630384 14.965613 -6.811772 0.177475 -34.545919 -13.367531 0.000000 0.000000 -0.000000 -6.243304 -51.142363 -8.649824 -13.459318 -8.157858 19.835763 
2.858047 0.596212 -5.233765 175.460179 -9.318968 -179.087579 0.000000 -0.000000 0.000000 -5.137089 -0.407669 5.398567 -0.061843 -1.778641 0.254733 0.000000 0.000000 0.000000 0.381591 -1.679415 0.816736 1.313645 -28.978756 -2.773122 -0.236389 -1.576546 -0.881259 1.068361 -6.759220 0.910064 -83.697946 -21.746814 11.522457 2.549174 -23.230649 -1.025343 -0.244241 -2.292646 -0.400494 16.669027 18.501107 3.881570 54.994875 12.673048 7.802001 -3.800701 74.351328 -0.069903 0.000000 0.000000 -0.000000 -1.616388 14.802679 -7.128821 -0.021254 -34.341445 -12.732574 0.000000 0.000000 -0.000000 -6.121142 -50.839379 -8.584131 -13.155047 -7.569970 19.615094 
2.928057 0.636468 -5.341199 175.432796 -9.261782 -179.065010 0.000000 -0.000000 0.000000 -5.398432 -0.357191 5.595548 -0.107701 -1.717472 0.262422 0.000000 0.000000 0.000000 0.340807 -1.643148 0.809603 1.113188 -27.804587 -3.226865 -0.259297 -1.520727 -0.856320 1.125082 -6.938983 0.904462 -83.468659 -21.946250 11.604385 2.636458 -24.525616 -1.120794 -0.266885 -2.231764 -0.423571 16.256130 18.599532 3.788259 54.968880 12.701159 8.057202 -3.962349 74.140562 -0.190965 0.000000 0.000000 -0.000000 -1.610225 14.635904 -7.484765 -0.235492 -34.092133 -12.055647 0.000000 -0.000000 -0.000000 -5.988659 -50.622908 -8.560272 -12.889739 -6.945971 19.421885 
3.002192 0.678060 -5.445669 175.348253 -9.300530 -179.029612 -0.000000 -0.000000 0.000000 -5.673567 -0.282624 5.800229 -0.156250 -1.655415 0.294699 0.000000 0.000000 0.000000 0.302497 -1.602789 0.836119 0.938733 -26.652153 -3.815485 -0.283218 -1.458925 -0.817721 1.161851 -7.070217 0.918005 -83.197431 -22.216159 11.646455 2.759447 -25.898647 -1.211418 -0.291311 -2.169797 -0.432875 15.888482 18.774068 3.719833 54.947224 12.717145 8.257087 -4.143286 74.232419 -0.337659 0.000000 0.000000 -0.000000 -1.621890 14.452299 -7.897458 -0.465067 -33.848225 -11.326059 0.000000 -0.000000 -0.000000 -5.870696 -50.503936 -8.561881 -12.617823 -6.229190 19.258881 
3.081124 0.721012 -5.548379 175.207486 -9.425757 -178.976469 -0.000000 -0.000000 0.000000 -5.958485 -0.179017 6.014026 -0.209895 -1.595210 0.348082 0.000000 0.000000 0.000000 0.268802 -1.559928 0.885272 0.745009 -25.478021 -4.510175 -0.308965 -1.396886 -0.768594 1.179440 -7.161820 0.931799 -82.922955 -22.498196 11.660438 2.892008 -27.424023 -1.319286 -0.315298 -2.115184 -0.436613 15.576151 18.983504 3.667842 54.954643 12.708772 8.412602 -4.381770 74.659222 -0.539581 0.000000 0.000000 -0.000000 -1.651480 14.247177 -8.345530 -0.700785 -33.664720 -10.577440 0.000000 -0.000000 -0.000000 -5.786949 -50.551405 -8.587484 -12.385220 -5.439267 19.160474 
3.164759 0.763794 -5.651109 175.031262 -9.608363 -178.899194 -0.000000 -0.000000 0.000000 -6.257897 -0.046225 6.215627 -0.267476 -1.535682 0.418327 0.000000 0.000000 0.000000 0.238821 -1.520078 0.938993 0.504382 -24.228150 -5.287791 -0.335943 -1.334881 -0.718637 1.194226 -7.241909 0.945788 -82.656400 -22.763216 11.622737 3.090431 -30.124067 -1.460753 -0.338166 -2.058561 -0.431364 15.325710 19.240171 3.630854 54.964446 12.665857 8.485726 -4.704853 75.373482 -0.817582 0.000000 0.000000 -0.000000 -1.693523 14.041297 -8.803017 -0.946677 -33.561893 -9.835639 0.000000 -0.000000 -0.000000 -5.728204 -50.696640 -8.589149 -12.142433 -4.597211 19.016160 
3.252963 0.805947 -5.754823 174.831155 -9.794374 -178.803978 -0.000000 -0.000000 0.000000 -6.547926 0.083186 6.376607 -0.334372 -1.478670 0.469640 0.000000 0.000000 0.000000 0.198304 -1.492294 0.964874 0.054275 -22.904003 -6.068064 -0.370949 -1.272399 -0.681369 1.204405 -7.316515 0.962603 -82.413540 -23.001909 11.537946 3.305267 -32.763651 -1.610371 -0.368589 -2.003494 -0.427701 15.153542 19.544470 3.616351 54.973644 12.605013 8.471636 -5.123773 76.299113 -1.185126 0.000000 0.000000 -0.000000 -1.752391 13.833825 -9.270329 -1.216002 -33.549593 -9.085095 0.000000 -0.000000 -0.000000 -5.679676 -50.948194 -8.588697 -11.881961 -3.679667 18.857154 
3.347695 0.847955 -5.859283 174.611483 -10.060165 -178.701620 -0.000000 -0.000000 0.000000 -6.840107 0.174110 6.523026 -0.414171 -1.428831 0.512157 0.000000 0.000000 0.000000 0.144399 -1.473821 0.968777 -0.173061 -21.531796 -6.858254 -0.412826 -1.221331 -0.657331 1.222727 -7.408554 0.983684 -82.168198 -23.208622 11.435537 3.541819 -35.278122 -1.762156 -0.407444 -1.951307 -0.442989 15.050247 19.879900 3.612435 54.987132 12.542191 8.318582 -5.694393 77.486843 -1.708523 0.000000 0.000000 -0.000000 -1.848274 13.593587 -9.734786 -1.536034 -33.713543 -8.291591 0.000000 -0.000000 -0.000000 -5.631910 -51.269873 -8.550060 -11.543036 -2.618400 18.595344 
3.451388 0.891445 -5.963815 174.385851 -10.387888 -178.597014 -0.000000 -0.000000 0.000000 -7.159418 0.191999 6.654602 -0.495716 -1.394880 0.546091 0.000000 0.000000 0.000000 0.089970 -1.462899 0.956403 -0.348117 -20.065334 -7.725012 -0.457070 -1.178555 -0.646873 1.239372 -7.499684 1.005105 -81.938209 -23.391773 11.333311 3.801862 -37.652940 -1.910227 -0.444560 -1.907052 -0.462465 15.005215 20.221044 3.612011 55.015678 12.466921 8.132745 -6.503929 78.851656 -2.487770 0.000000 0.000000 -0.000000 -1.958897 13.353949 -10.153347 -1.853075 -33.962418 -7.524685 0.000000 -0.000000 -0.000000 -5.563875 -51.619016 -8.478409 -11.107479 -1.476190 18.221416 
3.566522 0.935268 -6.067193 174.160233 -10.748705 -178.495014 -0.000000 -0.000000 0.000000 -7.534022 0.158411 6.814219 -0.577613 -1.371545 0.553253 0.000000 0.000000 0.000000 0.033323 -1.459767 0.929001 -0.498412 -18.574602 -8.532828 -0.498996 -1.143353 -0.634296 1.258464 -7.591125 1.029000 -81.707186 -23.556215 11.250357 4.076181 -39.799922 -2.044103 -0.483992 -1.871404 -0.486967 14.977934 20.515762 3.599078 55.072491 12.406304 7.936760 -7.680714 80.415436 -3.667467 0.000000 0.000000 -0.000000 -2.073216 13.172291 -10.515167 -2.193705 -34.336976 -6.780296 0.000000 -0.000000 -0.000000 -5.537437 -51.929417 -8.346154 -10.315126 -0.321869 17.704423 
